Coordinates
version=1
nRows=9
nColumns=63
inDegrees=yes

Units are S.I. units (second, meters, Newtons, ...)
If the header above contains a line with 'inDegrees', this indicates whether rotational values are in degrees (yes) or radians (no).

endheader
time	pelvis_tilt	pelvis_list	pelvis_rotation	pelvis_tx	pelvis_ty	pelvis_tz	hip_flexion_r	hip_adduction_r	hip_rotation_r	knee_angle_r	knee_angle_r_beta	ankle_angle_r	subtalar_angle_r	mtp_angle_r	hip_flexion_l	hip_adduction_l	hip_rotation_l	knee_angle_l	knee_angle_l_beta	ankle_angle_l	subtalar_angle_l	mtp_angle_l	L5_S1_Flex_Ext	L5_S1_Lat_Bending	L5_S1_axial_rotation	L4_L5_Flex_Ext	L4_L5_Lat_Bending	L4_L5_axial_rotation	L3_L4_Flex_Ext	L3_L4_Lat_Bending	L3_L4_axial_rotation	L2_L3_Flex_Ext	L2_L3_Lat_Bending	L2_L3_axial_rotation	L1_L2_Flex_Ext	L1_L2_Lat_Bending	L1_L2_axial_rotation	L1_T12_Flex_Ext	L1_T12_Lat_Bending	L1_T12_axial_rotation	Abs_r3	Abs_r2	Abs_r1	Abs_t1	Abs_t2	neck_flexion	neck_bending	neck_rotation	arm_flex_r	arm_add_r	arm_rot_r	elbow_flex_r	pro_sup_r	wrist_flex_r	wrist_dev_r	arm_flex_l	arm_add_l	arm_rot_l	elbow_flex_l	pro_sup_l	wrist_flex_l	wrist_dev_l
      1.15254237	     -2.64004021	    -12.32611281	     76.50663703	      0.30255978	      0.80093237	      0.71520111	     26.07945316	      4.16209706	     11.06308182	     29.74605603	      0.51916662	     34.42338622	    -11.39980558	      0.00000000	     20.12531890	     -0.67010712	     -0.80045950	     21.81679833	      0.38077496	     38.37658710	    -14.27676538	      0.00000000	     -0.13611122	      0.12026333	     -0.70715740	     -0.25277214	      0.15995022	     -0.75135474	     -0.22361712	      0.29240825	     -0.75135474	     -0.15556151	      0.29240825	     -0.61876273	     -0.12639288	      0.24524097	     -0.57456539	     -0.07777395	      0.18628789	     -0.53036805	     -0.97222881	      1.36044280	     -3.93299734	      0.00000000	      0.00000000	     -4.70423558	     -2.86954573	      2.64350387	    -17.07918919	    -18.76576105	     -2.84212191	    105.13385062	     87.10013036	     -4.73599349	     14.14455180	      4.36831676	    -14.19088710	      3.28430646	    107.72331192	     83.94543159	     -3.57204152	     10.39952783
      1.16949153	     -2.77661578	    -12.46810989	     76.52173503	      0.30338438	      0.80153516	      0.71502766	     26.13405349	      3.97462409	     10.55274608	     29.47209862	      0.51438516	     34.72675854	    -10.25906759	      0.00000000	     19.93048985	     -0.62402677	     -1.04417458	     21.15487368	      0.36922220	     38.01606705	    -14.30700960	      0.00000000	     -0.11586041	      0.11043177	     -1.13306025	     -0.21516436	      0.14687426	     -1.20387652	     -0.19034706	      0.26850382	     -1.20387652	     -0.13241686	      0.26850382	     -0.99142772	     -0.10758797	      0.22519247	     -0.92061145	     -0.06620264	      0.17105882	     -0.84979519	     -0.82757929	      1.24922631	     -6.30174120	      0.00000000	      0.00000000	     -5.14398758	     -4.22681739	      2.82857110	    -15.79021945	    -19.13499957	     -1.40124944	    109.42221854	     86.86667880	     -5.60379772	     16.90564142	      2.44223765	    -14.19168009	      0.26245607	    101.74638403	     86.11454525	     -6.19998679	     11.47946949
      1.18644068	     -2.75340414	    -12.51947301	     76.32914112	      0.30515382	      0.80256313	      0.71488054	     25.86721686	      3.98973255	     10.24207022	     28.87663721	      0.50399240	     34.88527046	     -8.97393886	      0.00000000	     19.54801069	     -0.84120047	     -1.57101305	     20.61207333	      0.35974855	     37.54047922	    -14.40688621	      0.00000000	     -0.09940065	      0.11407078	     -1.53462337	     -0.18459695	      0.15171414	     -1.63053733	     -0.16330533	      0.27735170	     -1.63053733	     -0.11360501	      0.27735170	     -1.34279545	     -0.09230345	      0.23261314	     -1.24688149	     -0.05679753	      0.17669564	     -1.15096753	     -0.71000892	      1.29039150	     -8.53511480	      0.00000000	      0.00000000	     -5.27887462	     -4.87963801	      2.61287141	    -14.52437641	    -19.37220871	      0.19302448	    113.27061914	     86.13240559	     -6.55000628	     19.15009384	      0.57851865	    -14.62027398	     -2.03167799	     95.37094183	     88.06312505	     -9.88271741	     10.48564321
      1.20338983	     -2.81338073	    -12.43229902	     75.53726623	      0.30800597	      0.80411501	      0.71440286	     25.16744688	      4.12651782	     10.61705486	     27.77765189	      0.48481148	     34.84533701	     -8.04089735	      0.00000000	     18.74366806	     -1.13334578	     -2.93242975	     19.77057778	      0.34506168	     36.90401602	    -14.59888437	      0.00000000	     -0.06925004	      0.10694560	     -1.80189632	     -0.12860425	      0.14223765	     -1.91451484	     -0.11377090	      0.26002754	     -1.91451484	     -0.07914587	      0.26002754	     -1.57665928	     -0.06430559	      0.21808347	     -1.46404076	     -0.03956947	      0.16565874	     -1.35142224	     -0.49464613	      1.20979003	    -10.02160675	      0.00000000	      0.00000000	     -5.47651941	     -5.32917501	      0.98982369	    -13.56803184	    -19.35449440	      1.49838323	    116.49062528	     84.75931395	     -7.08372229	     20.34153824	     -1.29827809	    -15.43699756	     -3.14189152	     88.69255085	     88.65184647	    -14.91275611	      6.69834384
      1.22033898	     -2.84295047	    -12.34107849	     74.31999048	      0.31189986	      0.80580141	      0.71383144	     24.25784318	      4.48090356	     11.61278399	     26.40460676	      0.46084733	     34.52065952	     -7.50825673	      0.00000000	     17.86722800	     -1.60478825	     -4.72414568	     18.99037400	      0.33144455	     36.36481548	    -14.59902318	      0.00000000	     -0.02138903	      0.10050336	     -1.90104310	     -0.03972157	      0.13366947	     -2.01985830	     -0.03514004	      0.24436388	     -2.01985830	     -0.02444552	      0.24436388	     -1.66341271	     -0.01986185	      0.20494646	     -1.54459752	     -0.01222169	      0.15567971	     -1.42578233	     -0.15277970	      1.13691416	    -10.57303142	      0.00000000	      0.00000000	     -5.79036704	     -4.99617028	     -1.75737592	    -13.21845729	    -19.02961871	      2.16978335	    119.30317157	     82.70417892	     -7.10343132	     20.44088390	     -3.09153624	    -16.43152655	     -2.82963462	     82.51188618	     88.87001732	    -21.09639090	      1.78022061
      1.23728814	     -2.87476416	    -12.14783304	     72.75666450	      0.31627239	      0.80755394	      0.71346124	     23.15220857	      4.88216112	     13.01906642	     24.88102535	      0.43425581	     34.08846111	     -7.06258980	      0.00000000	     16.98458981	     -2.10456293	     -6.64045552	     18.42239179	      0.32153139	     36.00485053	    -14.60668594	      0.00000000	      0.00715950	      0.09500737	     -1.87762157	      0.01329590	      0.12635981	     -1.99497291	      0.01176234	      0.23100093	     -1.99497291	      0.00818259	      0.23100093	     -1.64291887	      0.00664831	      0.19373903	     -1.52556752	      0.00409094	      0.14716642	     -1.40821618	      0.05113956	      1.07474240	    -10.44276787	      0.00000000	      0.00000000	     -5.87086580	     -4.49083172	     -5.13399210	    -12.91171814	    -18.65271414	      2.70291363	    121.61850643	     80.28556649	     -7.08111218	     20.03300549	     -5.16772736	    -17.19375734	     -2.34430890	     77.93741093	     88.90984211	    -25.38583902	     -2.60036998
      1.25423729	     -2.85046038	    -11.95114307	     71.08392254	      0.32086575	      0.80922076	      0.71287270	     21.90718417	      5.29710654	     14.60938899	     23.17333370	      0.40445097	     33.54642867	     -6.60976680	      0.00000000	     16.20493542	     -2.65215163	     -8.32120644	     18.08094536	      0.31557203	     35.88297735	    -14.56298201	      0.00000000	      0.02848776	      0.10270981	     -1.76651359	      0.05290463	      0.13660405	     -1.87692068	      0.04680255	      0.24972864	     -1.87692068	      0.03255867	      0.24972864	     -1.54569939	      0.02645374	      0.20944585	     -1.43529229	      0.01627791	      0.15909750	     -1.32488519	      0.20348525	      1.16187394	     -9.82481861	      0.00000000	      0.00000000	     -5.76481925	     -3.26681720	     -7.74132326	    -12.67233828	    -18.22465706	      3.12628134	    123.30329878	     78.00467764	     -6.93434042	     19.25989727	     -7.72254778	    -17.63373152	     -1.89977860	     75.72760019	     88.84195299	    -27.66502571	     -5.70939089
      1.27118644	     -2.82259408	    -11.75003309	     69.30402778	      0.32560410	      0.81070539	      0.71219288	     20.60413834	      5.64232156	     16.21486411	     21.37500507	      0.37306422	     33.02423997	     -5.76303959	      0.00000000	     15.60351782	     -3.19717295	     -9.63635819	     18.05164232	      0.31506059	     35.85638999	    -14.78054143	      0.00000000	      0.03506960	      0.11369437	     -1.59794416	      0.06512776	      0.15121352	     -1.69781567	      0.05761585	      0.27643650	     -1.69781567	      0.04008105	      0.27643650	     -1.39820114	      0.03256563	      0.23184557	     -1.29832963	      0.02003877	      0.17611258	     -1.19845812	      0.25049867	      1.28613349	     -8.88728605	      0.00000000	      0.00000000	     -5.36817301	     -1.75026637	     -9.16529384	    -12.23608939	    -17.82451041	      3.77493196	    124.18281512	     76.59099726	     -6.92180476	     18.58965676	    -10.87400663	    -17.77232061	     -2.12684732	     76.38429356	     88.72641858	    -27.19131841	     -7.20399277
      1.28813559	     -2.56125988	    -11.71673022	     68.50231012	      0.32977959	      0.81155684	      0.71084776	     19.37184236	      5.92744921	     16.86927346	     19.58948211	      0.34190096	     32.64303389	     -4.89881235	      0.00000000	     15.45419525	     -3.82019176	     -9.68330141	     18.51183603	      0.32309249	     36.03064878	    -15.04517274	      0.00000000	      0.04803399	      0.15496287	     -1.47957457	      0.08920392	      0.20610061	     -1.57204798	      0.07891504	      0.37677672	     -1.57204798	      0.05489805	      0.37677672	     -1.29462775	      0.04460436	      0.31600028	     -1.20215434	      0.02744662	      0.24003748	     -1.10968093	      0.34310198	      1.75297095	     -8.22894990	      0.00000000	      0.00000000	     -4.83100277	     -0.47673024	     -9.58729099	    -12.07480144	    -17.24433032	      4.04097744	    124.41418367	     76.45865512	     -6.93287595	     18.51482641	    -13.74245383	    -18.20913881	     -1.43497428	     79.09280206	     88.62065580	    -26.67724172	     -7.89431747
